<svg xmlns="http://www.w3.org/2000/svg" viewBox="0 0 114.983 114.481"><defs><style>.a,.b{fill:none;stroke:#fd0;stroke-width:4px;}.b{stroke-linecap:round;}.c{fill:#fd0;}</style></defs><g transform="translate(-1310.672 9.193)"><line class="a" y1="3" x2="37" transform="translate(1313.5 28.5)"/><line class="b" x1="18" y2="35" transform="translate(1350.5 -6.5)"/><line class="a" x1="18" y1="35" transform="translate(1368.5 -6.5)"/><line class="b" x1="37" y1="3" transform="translate(1386.5 28.5)"/><line class="a" y1="28" x2="29" transform="translate(1394.5 31.5)"/><line class="b" x1="8" y1="43" transform="translate(1394.5 59.5)"/><line class="a" x2="34" y2="24" transform="translate(1368.5 78.5)"/><line class="b" y1="24" x2="34" transform="translate(1334.5 78.5)"/><line class="a" x1="8" y2="43" transform="translate(1334.5 59.5)"/><line class="b" x2="29" y2="28" transform="translate(1313.5 31.5)"/><path class="c" d="M1475.332,29.333c17-35.333,18-34.333,18-34.333l17.333,34.333,35,2.667L1519,60.333l7.333,41.333-33-24.667-33.667,24.667L1467,60.333,1438,32Z" transform="translate(-124)"/></g></svg>