<?xml version="1.0" standalone="no"?>
<!DOCTYPE svg PUBLIC "-//W3C//DTD SVG 20010904//EN"
 "http://www.w3.org/TR/2001/REC-SVG-20010904/DTD/svg10.dtd">
<svg version="1.0" xmlns="http://www.w3.org/2000/svg"
 width="260.000000pt" height="260.000000pt" viewBox="0 0 260.000000 260.000000"
 preserveAspectRatio="xMidYMid meet">
<metadata>
Created by potrace 1.11, written by Peter Selinger 2001-2013
</metadata>
<g transform="translate(0.000000,260.000000) scale(0.100000,-0.100000)"
fill="#000000" stroke="none">
<path d="M0 1300 l0 -1300 1300 0 1300 0 0 1300 0 1300 -1300 0 -1300 0 0
-1300z m1054 419 c3 -17 6 -87 6 -155 l0 -124 -45 0 c-42 0 -45 2 -45 28 0 50
-21 103 -55 140 -31 34 -37 36 -104 40 l-71 4 0 -376 0 -376 50 0 50 0 0 -50
0 -50 -200 0 -200 0 0 40 c0 41 2 43 51 54 46 10 49 31 49 406 l0 350 -57 0
c-99 0 -145 -42 -165 -149 l-12 -61 -43 0 -43 0 0 73 c0 39 3 109 7 155 l6 82
407 0 408 0 6 -31z m409 19 c111 -286 248 -643 257 -675 7 -24 16 -43 20 -43
3 0 18 35 33 78 15 42 76 206 135 365 l107 287 157 0 158 0 0 -50 c0 -48 -1
-50 -27 -50 -70 -1 -76 -27 -63 -294 5 -122 10 -274 10 -338 l0 -118 50 0 50
0 0 -50 0 -50 -190 0 -190 0 0 40 c0 41 2 43 52 54 45 10 49 41 38 325 -6 141
-12 267 -13 281 -1 15 -54 -113 -126 -305 -68 -181 -132 -349 -142 -372 l-18
-43 -59 0 -60 0 -20 48 c-136 319 -235 580 -255 677 -2 11 -5 -121 -5 -292
l-2 -313 50 0 50 0 0 -50 0 -50 -155 0 -155 0 0 45 c0 43 1 45 30 45 57 0 62
21 66 293 2 133 6 293 8 355 l3 112 -48 0 -49 0 0 50 0 50 149 0 c110 0 150
-3 154 -12z"/>
</g>
</svg>
